# xmcd
# 
# Track frame offsets:
#     150
#     14218
#     27836
#     43854
#     58132
#     69154
#     85674
#     98373
#     112372
#     130081
#     147852
#     162186
# 
# Disc length: 2350
# 
# Revision: 2
# Processed by: cddbd v1.5.2PL0 Copyright (c) Steve Scherf et al.
# Submitted via: BonkEnc v1.0.8
# 
DISCID=a0092c0c
DTITLE=Randy Travis - The Essentials
DYEAR=0
DGENRE=Country
TTITLE0=On The Oher Hand
TTITLE1=Diggin' Up Bones
TTITLE2=Forever And Ever, Amen
TTITLE3=I Won't Need You Anymore (Always And Forever)
TTITLE4=Too Gone Too Long
TTITLE5=I Told You So (Single Remix)
TTITLE6=Honky Tonk Moon
TTITLE7=If I Didn't Have You
TTITLE8=It's Just A Matter Of Time (Country Single Mix)
TTITLE9=Hard Rock Bottom Of Your Heart (Single Remix)
TTITLE10=Look Heart, No Hands
TTITLE11=Whisper My Name
EXTD=1st submission had a song spelled wrong. Use this one.
EXTT0=
EXTT1=
EXTT2=
EXTT3=
EXTT4=
EXTT5=
EXTT6=
EXTT7=
EXTT8=
EXTT9=
EXTT10=
EXTT11=
PLAYORDER=
